<?xml version="1.0" encoding="utf-8"?>
<!-- Generator: Adobe Illustrator 17.0.0, SVG Export Plug-In . SVG Version: 6.00 Build 0)  -->
<!DOCTYPE svg PUBLIC "-//W3C//DTD SVG 1.1//EN" "http://www.w3.org/Graphics/SVG/1.1/DTD/svg11.dtd">
<svg version="1.1" xmlns="http://www.w3.org/2000/svg" xmlns:xlink="http://www.w3.org/1999/xlink" x="0px" y="0px"
	 width="405.79px" height="405.79px" viewBox="0 0 405.79 405.79" enable-background="new 0 0 405.79 405.79" xml:space="preserve">
<g id="图层_2" display="none">
	<rect x="0" y="0" display="inline" width="405.79" height="405.79"/>
</g>
<g id="cat">
	
		<ellipse id="body" fill="none" stroke="#FFFFFF" stroke-width="32" stroke-miterlimit="10" cx="200.419" cy="214.033" rx="126.371" ry="131.102"/>
	<path id="ear_x5F_l" fill="#FFFFFF" stroke="#FFFFFF" stroke-miterlimit="10" d="M105.45,104.931l48.298-29.375
		c0,0-30.875-30.75-39.625-27.75c-1.513,0.519-4.398,3.755-5.5,9.625C105.504,74.045,105.45,104.931,105.45,104.931z"/>
	<path id="ear_x5F_r" fill="#FFFFFF" stroke="#FFFFFF" stroke-miterlimit="10" d="M295.248,104.931L246.95,75.556
		c0,0,30.875-30.75,39.625-27.75c1.513,0.519,4.398,3.755,5.5,9.625C295.194,74.045,295.248,104.931,295.248,104.931z"/>
	<g id="Y">
		<g id="m">
			<g>
				<path fill="#FFFFFF" d="M214.145,288.376c0-16.982,0-33.963,0-50.945c0-14.51-22.5-14.51-22.5,0c0,16.982,0,33.963,0,50.945
					C191.645,302.885,214.145,302.885,214.145,288.376L214.145,288.376z"/>
			</g>
		</g>
		<g id="l">
			<g>
				<path fill="#FFFFFF" d="M209.04,231.107c-9.634-12.056-19.268-24.111-28.902-36.167c-3.834-4.798-11.936-3.973-15.91,0
					c-4.694,4.694-3.824,11.124,0,15.91c9.634,12.056,19.268,24.111,28.902,36.167c3.834,4.798,11.936,3.973,15.91,0
					C213.734,242.323,212.865,235.893,209.04,231.107L209.04,231.107z"/>
			</g>
		</g>
		<g id="r">
			<g>
				<path fill="#FFFFFF" d="M212.557,247.017c9.634-12.056,19.268-24.111,28.902-36.167c3.824-4.786,4.694-11.216,0-15.91
					c-3.973-3.973-12.076-4.798-15.91,0c-9.634,12.056-19.268,24.111-28.902,36.167c-3.824,4.786-4.694,11.216,0,15.91
					C200.62,250.991,208.722,251.815,212.557,247.017L212.557,247.017z"/>
			</g>
		</g>
	</g>
	<g id="tail">
		<g>
			<path fill="#FFFFFF" d="M256.249,342.29c9.973,11.679,24.061,19.902,38.062,25.667c30.23,12.446,64.012,3.567,89.18-15.659
				c7.024-5.366,10.724-13.879,5.83-22.233c-4.062-6.935-15.175-11.221-22.233-5.83c-6.284,4.8-12.904,8.995-20.069,12.355
				c-4.479,2.101,2.874-1.077-1.61,0.647c-1.763,0.677-3.566,1.243-5.372,1.789c-1.727,0.522-3.486,0.933-5.246,1.325
				c-0.841,0.187-6.562,1.044-2.051,0.472c-2.834,0.359-5.694,0.461-8.547,0.456c-1.561-0.003-3.121-0.102-4.678-0.214
				c-4.802-0.347,1.542,0.335-1.304-0.114c-5.237-0.826-10.342-2.382-15.262-4.333c4.433,1.758,1.176,0.485,0.25,0.063
				c-1.161-0.53-2.3-1.108-3.434-1.692c-2.14-1.101-4.213-2.328-6.252-3.605c-1.627-1.019-3.205-2.112-4.763-3.233
				c-1.025-0.737-4.157-3.217,0.312,0.285c-0.716-0.562-1.418-1.142-2.117-1.725c-2.72-2.268-5.411-4.702-7.717-7.402
				c-5.757-6.742-17.089-5.892-22.981,0C249.621,325.937,250.503,335.56,256.249,342.29L256.249,342.29z"/>
		</g>
	</g>
</g>
</svg>
